<?xml version="1.0" encoding="UTF-8" standalone="no"?>
<!-- Created with Inkscape (http://www.inkscape.org/) -->

<svg
   xmlns:dc="http://purl.org/dc/elements/1.1/"
   xmlns:cc="http://creativecommons.org/ns#"
   xmlns:rdf="http://www.w3.org/1999/02/22-rdf-syntax-ns#"
   xmlns:svg="http://www.w3.org/2000/svg"
   xmlns="http://www.w3.org/2000/svg"
   xmlns:sodipodi="http://sodipodi.sourceforge.net/DTD/sodipodi-0.dtd"
   xmlns:inkscape="http://www.inkscape.org/namespaces/inkscape"
   width="512"
   height="512"
   viewBox="0 0 512.00001 512.00001"
   id="svg3501"
   version="1.1"
   inkscape:version="0.91 r13725"
   sodipodi:docname="logo-path.svg">
  <title
     id="title3513">Logo</title>
  <defs
     id="defs3503" />
  <sodipodi:namedview
     id="base"
     pagecolor="#ffffff"
     bordercolor="#666666"
     borderopacity="1.0"
     inkscape:pageopacity="0.0"
     inkscape:pageshadow="2"
     inkscape:zoom="0.98994949"
     inkscape:cx="344.29361"
     inkscape:cy="251.63839"
     inkscape:document-units="px"
     inkscape:current-layer="g4333"
     showgrid="true"
     units="px"
     objecttolerance="20"
     showguides="true"
     inkscape:guide-bbox="true"
     inkscape:snap-page="true"
     inkscape:window-width="1366"
     inkscape:window-height="705"
     inkscape:window-x="-8"
     inkscape:window-y="-8"
     inkscape:window-maximized="1">
    <inkscape:grid
       type="xygrid"
       id="grid3509"
       empspacing="4"
       dotted="false" />
    <sodipodi:guide
       position="0,0"
       orientation="0,1"
       id="guide4329" />
    <sodipodi:guide
       position="0,0"
       orientation="1,0"
       id="guide4331" />
  </sodipodi:namedview>
  <metadata
     id="metadata3506">
    <rdf:RDF>
      <cc:Work
         rdf:about="">
        <dc:format>image/svg+xml</dc:format>
        <dc:type
           rdf:resource="http://purl.org/dc/dcmitype/StillImage" />
        <dc:title>Logo</dc:title>
        <cc:license
           rdf:resource="" />
      </cc:Work>
    </rdf:RDF>
  </metadata>
  <g
     inkscape:groupmode="layer"
     id="layer2"
     inkscape:label="Logo">
    <g
       id="g4333"
       transform="matrix(1.007669,0,0,1.0512276,-1.2414967,-567.88668)">
      <path
         style="fill:#000000;fill-opacity:1;stroke:#000000;stroke-width:10.10152531;stroke-linejoin:miter;stroke-miterlimit:4;stroke-dasharray:none;stroke-opacity:1"
         d="m 253.58191,186.31743 0,-63.13454 20.20306,0 20.20305,0 0,63.13454 0,63.13453 -20.20305,0 -20.20306,0 0,-63.13453 z"
         id="path4754"
         inkscape:connector-curvature="0"
         transform="matrix(0.99238937,0,0,0.95126878,1.2320481,540.21287)" />
      <path
         style="fill:#000000;fill-opacity:1;stroke:#000000;stroke-width:10.10152531;stroke-linejoin:miter;stroke-miterlimit:4;stroke-dasharray:none;stroke-opacity:1"
         d="m 179.84078,208.54078 0,-40.91118 20.20305,0 20.20305,0 0,40.91118 0,40.91118 -20.20305,0 -20.20305,0 0,-40.91118 z"
         id="path4756"
         inkscape:connector-curvature="0"
         transform="matrix(0.99238937,0,0,0.95126878,1.2320481,540.21287)" />
      <path
         style="fill:#000000;fill-opacity:1;stroke:#000000;stroke-width:10.10152531;stroke-linejoin:miter;stroke-miterlimit:4;stroke-dasharray:none;stroke-opacity:1"
         d="m 107.1098,231.26921 0,-18.18274 20.20305,0 20.20305,0 0,18.18274 0,18.18275 -20.20305,0 -20.20305,0 0,-18.18275 z"
         id="path4758"
         inkscape:connector-curvature="0"
         transform="matrix(0.99238937,0,0,0.95126878,1.2320481,540.21287)" />
      <path
         style="fill:#000000;fill-opacity:1;stroke:#000000;stroke-width:10.02682877;stroke-linejoin:miter;stroke-miterlimit:4;stroke-dasharray:none;stroke-opacity:1"
         d="m 217.0296,545.22595 c -13.09665,2.8e-4 -26.21132,0.8696 -36.63358,2.60635 -117.498385,19.57989 -194.311932,124.85618 -169.494591,232.29716 17.449333,75.54289 81.827254,134.59516 163.909331,150.3505 47.3128,9.08152 97.14816,2.43003 140.63446,-18.77079 6.61549,-3.22522 12.45895,-5.71875 12.98676,-5.53947 0.5278,0.17928 19.73305,17.34854 42.67783,38.15325 22.94481,20.80472 50.29417,45.60008 60.775,55.10033 19.70859,17.86482 24.50327,21.08122 33.44427,22.42962 21.24013,3.2034 41.15345,-13.5722 38.79604,-32.6841 -1.39212,-11.28617 -1.1678,-11.04718 -65.6935,-69.51704 -35.65844,-32.31183 -59.49655,-54.6127 -59.08538,-55.27511 0.37908,-0.6107 3.08121,-3.98556 6.00468,-7.49805 16.45885,-19.77501 30.07366,-46.25626 36.61972,-71.23055 13.74255,-52.42998 3.26349,-108.08648 -28.76712,-152.78208 -32.2907,-45.05853 -82.09256,-75.38525 -139.64324,-85.03556 -10.35463,-1.73633 -23.43405,-2.60474 -36.53068,-2.60446 z m 1.74107,33.77638 c 19.17114,-0.0408 34.55012,2.4039 53.94726,8.35861 36.6768,11.25937 70.30758,35.84652 91.13679,66.62951 28.99573,42.85211 34.65278,93.67147 15.78036,141.75822 -14.46434,36.85503 -44.63744,68.29214 -83.47611,86.97323 -20.99165,10.09684 -41.91832,15.52185 -66.93005,17.35362 -7.59777,0.55643 -14.04281,0.94888 -14.32421,0.87195 -0.2814,-0.0769 -5.50659,-0.48251 -11.61172,-0.90234 -30.99402,-2.1314 -63.68864,-13.49405 -89.67468,-31.16432 -12.37326,-8.4137 -30.276885,-25.58694 -39.162086,-37.56435 -7.813963,-10.53337 -18.832626,-31.15977 -22.618021,-42.34207 -13.281658,-39.23487 -9.914466,-83.41945 9.132682,-119.86244 9.661921,-18.48623 29.27773,-41.19204 47.000825,-54.40316 29.99826,-22.36124 63.99489,-34.16846 102.32709,-35.53929 2.91624,-0.10428 5.73313,-0.16134 8.47187,-0.16717 z"
         id="path4760"
         inkscape:connector-curvature="0" />
    </g>
  </g>
</svg>
