<?xml version="1.0" encoding="UTF-8" standalone="no"?>
<svg
   xmlns:dc="http://purl.org/dc/elements/1.1/"
   xmlns:cc="http://creativecommons.org/ns#"
   xmlns:rdf="http://www.w3.org/1999/02/22-rdf-syntax-ns#"
   xmlns:svg="http://www.w3.org/2000/svg"
   xmlns="http://www.w3.org/2000/svg"
   viewBox="0 0 331.25 57.5"
   height="57.5"
   width="331.25"
   xml:space="preserve"
   version="1.1"
   id="svg2"><metadata
     id="metadata8"><rdf:RDF><cc:Work
         rdf:about=""><dc:format>image/svg+xml</dc:format><dc:type
           rdf:resource="http://purl.org/dc/dcmitype/StillImage" /></cc:Work></rdf:RDF></metadata><defs
     id="defs6"><clipPath
       id="clipPath30"
       clipPathUnits="userSpaceOnUse"><path
         id="path32"
         d="m 0,3 2650,0 0,454 L 0,457 0,3 Z" /></clipPath></defs><g
     transform="matrix(1.25,0,0,-1.25,0,57.5)"
     id="g10"><g
       transform="scale(0.1,0.1)"
       id="g12"><path
         id="path14"
         style="fill:#078340;fill-opacity:1;fill-rule:nonzero;stroke:none"
         d="m 215.414,305.422 -77.457,-186.547 -77.0625,186.547 -47.6367,0 L 0,7.36719 l 38.9414,0 9.5274,232.97281 70.4262,-171.2072 32.722,0 72.918,169.9612 9.524,-231.72681 41.007,0 -14.078,298.05481" /><path
         id="path16"
         style="fill:#078340;fill-opacity:1;fill-rule:nonzero;stroke:none"
         d="m 634.75,7.36719 41.0039,0 0,298.055 -41.0039,0 0,-298.055 z" /><path
         id="path18"
         style="fill:#078340;fill-opacity:1;fill-rule:nonzero;stroke:none"
         d="m 1868.92,7.36719 41.0039,0 0,298.055 -41.0039,0 0,-298.055 z" /><path
         id="path20"
         style="fill:#078340;fill-opacity:1;fill-rule:nonzero;stroke:none"
         d="m 1949.78,7.36719 41.0313,0 0,212.637 -41.0313,0 0,-212.637 z" /><path
         id="path22"
         style="fill:#078340;fill-opacity:1;fill-rule:nonzero;stroke:none"
         d="m 1949.78,264.309 41.0313,0 0,41.1133 -41.0313,0 0,-41.1133 z" /><path
         id="path24"
         style="fill:#078340;fill-opacity:1;fill-rule:nonzero;stroke:none"
         d="M 746.07,220.008 678.543,117.637 757.246,7.37109 l 45.563,0 -79.114,113.16791 67.516,99.469" /><g
         id="g26"><g
           clip-path="url(#clipPath30)"
           id="g28"><path
             id="path34"
             style="fill:#078340;fill-opacity:1;fill-rule:nonzero;stroke:none"
             d="m 2029.55,47.4922 0,0 c 14.89,-6.2149 33.53,-9.957 51.32,-9.957 25.26,0 47.62,10.8125 47.62,31.1132 0,21.5352 -17.39,26.9649 -38.09,33.5816 l -14.49,5.395 c -35.19,13.254 -50.52,26.953 -50.52,55.125 0,37.703 27.34,61.313 79.08,61.313 21.53,0 43.49,-4.969 58.8,-10.352 l -8.7,-31.898 c -12,4.546 -29.39,9.523 -48.84,9.523 -20.3,0 -38.93,-6.211 -38.93,-24.445 0,-19.055 16.56,-24.063 36.02,-30.68 l 18.22,-6.223 c 26.5,-8.695 48.44,-21.984 48.44,-58.4372 0,-41.0235 -34.78,-67.56252 -86.95,-67.56252 -26.49,0 -45.54,3.73438 -62.51,9.93752" /><path
             id="path36"
             style="fill:#078340;fill-opacity:1;fill-rule:nonzero;stroke:none"
             d="M 1461.41,7.36719 1374.88,132.898 c 31.88,15.153 63.35,43.079 63.35,86.168 0,71.676 -58.8,91.145 -115.1,91.145 -25.66,0 -40.71,-2.481 -64.72,-4.555 l 0,-298.28881 42.22,0 0,265.55481 c 9.95,1.242 17.94,1.66 27.46,1.66 39.75,0.008 65,-19.055 65,-58.836 0,-41.543 -40.73,-61.34 -75.21,-69.203 L 1413.8,7.36719" /><path
             id="path38"
             style="fill:#078340;fill-opacity:1;fill-rule:nonzero;stroke:none"
             d="m 840.648,132.598 c 3.731,36.461 21.532,58.004 55.063,58.004 33.949,0 49.684,-26.926 49.684,-58.004 l -104.747,0 z M 964.852,48.3789 c -17.797,-7.0351 -36.426,-10.3516 -55.883,-10.3516 -44.719,0 -67.492,17.5118 -68.735,63.9177 l 144.489,0 c 0.414,6.215 1.246,15.332 1.246,23.203 0,56.344 -31.047,98.18 -89.012,98.18 -68.312,0 -100.195,-48.523 -100.195,-111.094 0,-64.2067 32.297,-108.17931 109.718,-108.17931 26.497,0 48.028,3.72656 66.239,11.59761" /><path
             id="path40"
             style="fill:#078340;fill-opacity:1;fill-rule:nonzero;stroke:none"
             d="m 1502.22,132.598 c 3.74,36.461 21.55,58.004 55.08,58.004 33.95,0 49.67,-26.926 49.67,-58.004 l -104.75,0 z m 124.22,-84.2191 c -17.81,-7.0351 -36.44,-10.3516 -55.89,-10.3516 -44.72,0 -67.48,17.5118 -68.73,63.9177 l 144.49,0 c 0.4,6.215 1.25,15.332 1.25,23.203 0,56.344 -31.06,98.18 -89.03,98.18 -68.31,0 -100.19,-48.523 -100.19,-111.094 0,-64.2067 32.3,-108.17931 109.72,-108.17931 26.5,0 48.03,3.72656 66.24,11.59761" /><path
             id="path42"
             style="fill:#078340;fill-opacity:1;fill-rule:nonzero;stroke:none"
             d="m 502.93,7.36719 0,212.63681 34.777,0 3.723,-33.664 c 11.597,18.64 29.808,34.801 59.621,34.801 4.551,0 9.32,-0.414 12.625,-0.832 l 0,-37.278 c -4.551,1.235 -9.723,0.821 -12.625,0.821 -29.395,0 -57.137,-13.664 -57.137,-70.836 l 0,-105.64881" /><path
             id="path44"
             style="fill:#078340;fill-opacity:1;fill-rule:nonzero;stroke:none"
             d="m 1789.29,41.2813 c -10.36,-2.8946 -24.84,-4.1485 -37.67,-4.1485 -19.87,0 -46.78,1.6953 -46.78,34.836 0,26.1015 18.21,38.5272 52.57,38.5272 8.7,0 23.61,-1.234 31.88,-2.488 l 0,-66.7267 z m -44.31,181.9917 c -21.1,0 -45.11,-3.308 -63.75,-9.531 l 7.87,-32.726 c 16.14,4.968 32.3,8.289 51.75,8.289 31.47,0 48.44,-10.77 48.44,-43.496 l 0,-5.481 c -7.87,1.235 -18.22,2.074 -36.01,2.074 -47.61,0 -89.44,-23.203 -89.44,-71.2536 0,-48.4804 33.96,-67.15621 88.18,-67.15621 28.57,0 57.97,5.80859 77.43,10.36331 l 0,129.7855 c 0,55.109 -29.39,79.132 -84.47,79.132" /><path
             id="path46"
             style="fill:#078340;fill-opacity:1;fill-rule:nonzero;stroke:none"
             d="m 424.926,41.2813 c -10.344,-2.8946 -24.836,-4.1485 -37.676,-4.1485 -19.871,0 -46.781,1.6953 -46.781,34.836 0,26.1015 18.211,38.5272 52.582,38.5272 8.687,0 23.594,-1.234 31.875,-2.488 l 0,-66.7267 z M 380.633,223.273 c -21.125,0 -45.133,-3.308 -63.758,-9.531 l 7.855,-32.726 c 16.153,4.968 32.301,8.289 51.758,8.289 31.461,0 48.438,-10.77 48.438,-43.496 l 0,-5.481 c -7.867,1.235 -18.211,2.074 -36.02,2.074 -47.609,0 -89.426,-23.203 -89.426,-71.2536 0,-48.4804 33.95,-67.15621 88.184,-67.15621 28.566,0 57.965,5.80859 77.422,10.36331 l 0,129.7855 c 0,55.109 -29.398,79.132 -84.453,79.132" /><path
             id="path48"
             style="fill:#078340;fill-opacity:1;fill-rule:nonzero;stroke:none"
             d="m 1122.41,40.5508 c -6.62,-1.6602 -14.9,-3.3086 -24.43,-3.3086 -24.42,0 -31.04,7.043 -31.04,53.0351 l 0,97.0037 53.84,0 0,32.727 -53.84,0 0,65.265 -40.61,0 0,-65.265 -28.947,0 0,-32.727 28.947,0 0,-120.6326 c 0,-44.7461 23.63,-62.55856 63.37,-62.54684 13.66,0 25.68,1.24219 36.85,4.13672" /><path
             id="path50"
             style="fill:#078340;fill-opacity:1;fill-rule:nonzero;stroke:none"
             d="m 2308.29,40.4531 c -6.62,-1.6562 -14.91,-3.3164 -24.43,-3.3164 -24.42,0 -31.05,7.043 -31.05,53.0352 l 0,97.1051 53.85,0 0,32.727 -53.85,0 0,65.269 -40.61,0 0,-65.269 -24.65,0 -8.92,-32.727 33.57,0 0,-120.734 c 0,-44.7461 23.64,-62.54691 63.38,-62.54691 13.67,0 25.67,1.24219 36.84,4.14844" /><path
             id="path52"
             style="fill:#078340;fill-opacity:1;fill-rule:nonzero;stroke:none"
             d="m 2379.82,329.102 c 0,54.429 44.25,98.711 98.64,98.711 54.4,0.007 98.68,-44.282 98.68,-98.704 0,-54.441 -44.28,-98.718 -98.68,-98.718 -54.39,0 -98.64,44.277 -98.64,98.711 m 263.38,-143.766 -65.79,64.477 c 17.45,21.734 27.89,49.32 27.89,79.296 0,69.981 -56.91,126.903 -126.84,126.903 -69.93,0 -126.82,-56.934 -126.82,-126.91 0,-69.989 56.89,-126.911 126.82,-126.911 23.59,0 45.7,6.485 64.63,17.754 l 68.35,-67.039 c 4.27,-4.176 9.91,-6.484 15.88,-6.484 6.14,0 11.89,2.437 16.19,6.82 4.24,4.336 6.54,10.035 6.5,16.113 -0.08,6.059 -2.49,11.735 -6.81,15.981" /><path
             id="path54"
             style="fill:#078340;fill-opacity:1;fill-rule:nonzero;stroke:none"
             d="m 2457.61,293.879 31.918,0 0,59.9883 -31.918,0 0,-59.9883 z" /><path
             id="path56"
             style="fill:#078340;fill-opacity:1;fill-rule:nonzero;stroke:none"
             d="m 2503.26,293.879 31.9102,0 0,89.2148 -31.9102,0 0,-89.2148 z" /><path
             id="path58"
             style="fill:#078340;fill-opacity:1;fill-rule:nonzero;stroke:none"
             d="m 2411.96,293.879 31.9141,0 0,30.75 -31.9141,0 0,-30.75 z" /></g></g></g></g></svg>