<?xml version="1.0" encoding="utf-8"?>
<!-- Generator: Adobe Illustrator 17.1.0, SVG Export Plug-In . SVG Version: 6.00 Build 0)  -->
<!DOCTYPE svg PUBLIC "-//W3C//DTD SVG 1.1//EN" "http://www.w3.org/Graphics/SVG/1.1/DTD/svg11.dtd">
<svg version="1.1" id="Layer_1" xmlns="http://www.w3.org/2000/svg" xmlns:xlink="http://www.w3.org/1999/xlink" x="0px" y="0px"
	 viewBox="0 0 294.053 50.125" enable-background="new 0 0 294.053 50.125" xml:space="preserve">
<g>
	<path fill="#FFFFFF" d="M6.757,16.699l8.55,20.685l8.596-20.685h5.057l1.563,33.051h-4.551l-1.057-25.696L16.825,42.9h-3.632
		L5.378,23.917L4.321,49.75H0l1.471-33.051H6.757z"/>
	<rect x="70.434" y="16.699" fill="#FFFFFF" width="4.551" height="33.051"/>
	<rect x="207.381" y="16.699" fill="#FFFFFF" width="4.551" height="33.051"/>
	<rect x="216.354" y="26.171" fill="#FFFFFF" width="4.553" height="23.579"/>
	<rect x="216.354" y="16.699" fill="#FFFFFF" width="4.553" height="4.56"/>
	<polygon fill="#FFFFFF" points="84.026,49.75 75.293,37.522 82.786,26.171 87.796,26.171 80.304,37.201 89.083,49.75 	"/>
	<path fill="#FFFFFF" d="M225.206,45.301L225.206,45.301c1.652,0.689,3.721,1.104,5.695,1.104c2.803,0,5.283-1.198,5.283-3.449
		c0-2.389-1.93-2.99-4.227-3.725l-1.607-0.598c-3.904-1.47-5.605-2.989-5.605-6.113c0-4.181,3.033-6.799,8.775-6.799
		c2.389,0,4.824,0.551,6.523,1.149l-0.965,3.537c-1.332-0.505-3.262-1.057-5.42-1.057c-2.252,0-4.32,0.69-4.32,2.711
		c0,2.113,1.838,2.668,3.998,3.402l2.021,0.69c2.939,0.965,5.375,2.438,5.375,6.48c0,4.549-3.859,7.492-9.648,7.492
		c-2.939,0-5.053-0.414-6.936-1.103L225.206,45.301z"/>
	<g>
		<path fill="#FFFFFF" d="M162.163,49.75l-9.602-13.92c3.537-1.68,7.029-4.777,7.029-9.556c0-7.947-6.523-10.107-12.771-10.107
			c-2.848,0-4.518,0.275-7.182,0.505V49.75h4.685V20.303c1.104-0.138,1.99-0.184,3.047-0.184c4.41,0,7.213,2.113,7.213,6.524
			c0,4.607-4.52,6.803-8.346,7.675l10.643,15.433H162.163z"/>
	</g>
	<path fill="#FFFFFF" d="M107.063,45.202c-1.976,0.78-4.043,1.148-6.202,1.148c-4.962,0-7.488-1.942-7.627-7.088h16.033
		c0.046-0.689,0.138-1.7,0.138-2.573c0-6.248-3.446-10.888-9.877-10.888c-7.58,0-11.118,5.382-11.118,12.319
		c0,7.12,3.584,11.996,12.174,11.996c2.94,0,5.329-0.413,7.351-1.286L107.063,45.202z M93.281,35.863
		c0.414-4.043,2.389-6.432,6.11-6.432c3.767,0,5.513,2.985,5.513,6.432H93.281z"/>
	<path fill="#FFFFFF" d="M180.475,45.202c-1.977,0.78-4.043,1.148-6.201,1.148c-4.963,0-7.488-1.942-7.627-7.088h16.033
		c0.045-0.689,0.139-1.7,0.139-2.573c0-6.248-3.447-10.888-9.879-10.888c-7.58,0-11.117,5.382-11.117,12.319
		c0,7.12,3.584,11.996,12.174,11.996c2.941,0,5.33-0.413,7.352-1.286L180.475,45.202z M166.692,35.863
		c0.414-4.043,2.391-6.432,6.111-6.432c3.767,0,5.512,2.985,5.512,6.432H166.692z"/>
	<path fill="#FFFFFF" d="M55.807,49.75V26.171h3.859l0.413,3.733c1.286-2.067,3.308-3.859,6.615-3.859
		c0.505,0,1.034,0.046,1.401,0.092v4.135c-0.505-0.138-1.079-0.092-1.401-0.092c-3.262,0-6.34,1.516-6.34,7.855V49.75H55.807z"/>
	<path fill="#FFFFFF" d="M193.629,25.808c-2.342,0-5.006,0.368-7.074,1.057l0.873,3.629c1.791-0.551,3.584-0.919,5.742-0.919
		c3.492,0,5.375,1.194,5.375,4.823v0.607c-0.873-0.137-2.021-0.229-3.996-0.229c-5.283,0-9.924,2.573-9.924,7.901
		c0,5.376,3.768,7.446,9.785,7.446c3.17,0,6.432-0.644,8.592-1.148V34.583C203.003,28.473,199.741,25.808,193.629,25.808z
		 M198.546,45.989c-1.149,0.321-2.756,0.46-4.18,0.46c-2.205,0-5.191-0.188-5.191-3.863c0-2.894,2.021-4.271,5.834-4.271
		c0.965,0,2.619,0.137,3.537,0.275V45.989z"/>
	<path fill="#FFFFFF" d="M42.236,25.808c-2.343,0-5.007,0.368-7.075,1.057l0.873,3.629c1.792-0.551,3.583-0.919,5.743-0.919
		c3.491,0,5.375,1.194,5.375,4.823v0.607c-0.873-0.137-2.021-0.229-3.997-0.229c-5.283,0-9.923,2.573-9.923,7.901
		c0,5.376,3.767,7.446,9.785,7.446c3.17,0,6.432-0.644,8.591-1.148V34.583C51.607,28.473,48.346,25.808,42.236,25.808z
		 M47.151,45.989c-1.148,0.321-2.756,0.46-4.181,0.46c-2.205,0-5.191-0.188-5.191-3.863c0-2.894,2.021-4.271,5.835-4.271
		c0.964,0,2.618,0.137,3.537,0.275V45.989z"/>
	<path fill="#FFFFFF" d="M124.546,46.07c-0.734,0.183-1.653,0.367-2.71,0.367c-2.711,0-3.445-0.781-3.445-5.881V29.8h5.976v-3.629
		h-5.976v-7.237h-4.506v7.237h-3.212V29.8h3.212v13.377c0,4.962,2.622,6.937,7.032,6.936c1.516,0,2.849-0.138,4.089-0.459
		L124.546,46.07z"/>
	<path fill="#FFFFFF" d="M256.135,46.081c-0.734,0.184-1.654,0.368-2.711,0.368c-2.709,0-3.445-0.781-3.445-5.881V29.8h5.977v-3.629
		h-5.977v-7.237h-4.506v7.237h-2.734l-0.99,3.629h3.725v13.389c0,4.962,2.623,6.936,7.033,6.936c1.516,0,2.848-0.138,4.088-0.46
		L256.135,46.081z"/>
</g>
<g>
	<path fill="#FFFFFF" d="M293.297,30.016l-7.299-7.15c1.935-2.41,3.094-5.469,3.094-8.793c0-7.76-6.314-14.072-14.074-14.072
		s-14.072,6.313-14.072,14.073c0,7.761,6.312,14.073,14.072,14.073c2.617,0,5.07-0.719,7.172-1.969l7.584,7.434
		c0.475,0.463,1.1,0.719,1.762,0.719c0.682,0,1.32-0.27,1.797-0.756c0.471-0.48,0.727-1.113,0.721-1.787
		C294.046,31.115,293.778,30.486,293.297,30.016z M264.073,14.073c0-6.036,4.91-10.946,10.945-10.946
		c6.037-0.001,10.949,4.91,10.949,10.945c0,6.037-4.912,10.947-10.949,10.947C268.983,25.02,264.073,20.109,264.073,14.073z"/>
</g>
<g>
	<rect x="272.705" y="11.326" fill="#FFFFFF" width="3.542" height="6.652"/>
	<rect x="277.77" y="8.086" fill="#FFFFFF" width="3.541" height="9.893"/>
	<rect x="267.639" y="14.568" fill="#FFFFFF" width="3.541" height="3.41"/>
</g>
</svg>
