<svg xmlns="http://www.w3.org/2000/svg" xmlns:xlink="http://www.w3.org/1999/xlink" version="1.1" x="0px" y="0px" viewBox="0 0 48 48" enable-background="new 0 0 48 48" xml:space="preserve"><path d="M46.322,17.697c-0.397,0-0.721,0.321-0.721,0.719v0.957H2.34v-0.957c0-0.397-0.321-0.719-0.719-0.719  c-0.397,0-0.718,0.321-0.718,0.719v1.675v26.419c0,0.396,0.321,0.72,0.718,0.72h12.093c0.394,0,0.714-0.315,0.718-0.71l0.04-3.514  c0.002-0.192-0.072-0.377-0.207-0.513c-0.135-0.136-0.319-0.215-0.511-0.215H2.34V20.81h43.262v21.47H34.229  c-0.397,0-0.719,0.323-0.719,0.72v3.512c0,0.396,0.321,0.72,0.719,0.72h12.094c0.396,0,0.718-0.324,0.718-0.72V20.49v-0.399v-1.675  C47.04,18.019,46.718,17.697,46.322,17.697z M13.028,43.719l-0.024,2.074H2.34v-2.074H13.028z M45.602,45.793H34.946v-2.074h10.655  V45.793z"></path><path d="M30.875,44.036H17.066c-0.396,0-0.718,0.323-0.718,0.72v1.755c0,0.396,0.322,0.72,0.718,0.72  c0.397,0,0.718-0.324,0.718-0.72v-1.038h12.374v1.038c0,0.396,0.318,0.72,0.717,0.72c0.397,0,0.72-0.324,0.72-0.72v-1.755  C31.595,44.359,31.272,44.036,30.875,44.036z"></path><path d="M31.355,33.34h-1.897H18.483h-1.895c-0.398,0-0.719,0.324-0.719,0.72c0,0.397,0.321,0.717,0.719,0.717h1.177v7.503  c0,0.397,0.321,0.72,0.718,0.72c0.397,0,0.719-0.322,0.719-0.72v-7.503h4.05v2.674h-0.299c-0.396,0-0.719,0.323-0.719,0.72  c0,0.397,0.322,0.72,0.719,0.72h0.299v3.39c0,0.397,0.322,0.72,0.718,0.72c0.397,0,0.72-0.322,0.72-0.72v-3.39h0.298  c0.397,0,0.719-0.322,0.719-0.72c0-0.396-0.321-0.72-0.719-0.72H24.69v-2.674h4.051v7.503c0,0.397,0.32,0.72,0.717,0.72  c0.398,0,0.72-0.322,0.72-0.72v-7.503h1.178c0.396,0,0.717-0.319,0.717-0.717C32.072,33.664,31.751,33.34,31.355,33.34z"></path><path d="M9.494,33.379H6.181c-0.397,0-0.719,0.324-0.719,0.72v4.791c0,0.394,0.322,0.717,0.719,0.717h3.313  c0.396,0,0.718-0.323,0.718-0.717v-4.791C10.212,33.703,9.891,33.379,9.494,33.379z M8.775,38.17H6.899v-3.354h1.876V38.17z"></path><path d="M37.729,38.89c0,0.394,0.323,0.717,0.721,0.717h3.312c0.397,0,0.72-0.323,0.72-0.717v-4.791c0-0.396-0.322-0.72-0.72-0.72  h-3.312c-0.397,0-0.721,0.324-0.721,0.72V38.89z M39.166,34.816h1.877v3.354h-1.877V34.816z"></path><path d="M38.449,30.468h3.312c0.397,0,0.72-0.323,0.72-0.717v-3.279c0-1.312-1.065-2.376-2.375-2.376s-2.377,1.065-2.377,2.376  v3.279C37.729,30.145,38.052,30.468,38.449,30.468z M39.166,26.472c0-0.519,0.421-0.939,0.939-0.939  c0.517,0,0.938,0.421,0.938,0.939v2.559h-1.877V26.472z"></path><path d="M10.212,26.472c0-1.312-1.066-2.376-2.375-2.376c-1.31,0-2.375,1.065-2.375,2.376v3.279c0,0.394,0.322,0.717,0.719,0.717  h3.313c0.396,0,0.718-0.323,0.718-0.717V26.472z M8.775,29.03H6.899v-2.559c0-0.519,0.421-0.939,0.938-0.939  s0.938,0.421,0.938,0.939V29.03z"></path><path d="M18.279,29.751v-3.279c0-1.312-1.065-2.376-2.375-2.376c-1.308,0-2.375,1.065-2.375,2.376v3.279  c0,0.394,0.322,0.717,0.718,0.717h3.313C17.957,30.468,18.279,30.145,18.279,29.751z M16.842,29.03h-1.876v-2.559  c0-0.519,0.421-0.939,0.938-0.939c0.518,0,0.938,0.421,0.938,0.939V29.03z"></path><path d="M25.628,30.468c0.396,0,0.718-0.323,0.718-0.717v-3.279c0-1.312-1.065-2.376-2.375-2.376c-1.309,0-2.374,1.065-2.374,2.376  v3.279c0,0.394,0.322,0.717,0.719,0.717H25.628z M23.033,26.472c0-0.519,0.421-0.939,0.938-0.939c0.518,0,0.939,0.421,0.939,0.939  v2.559h-1.877V26.472z"></path><path d="M33.692,30.468c0.398,0,0.721-0.323,0.721-0.717v-3.279c0-1.312-1.066-2.376-2.376-2.376c-1.309,0-2.374,1.065-2.374,2.376  v3.279c0,0.394,0.321,0.717,0.719,0.717H33.692z M31.1,26.472c0-0.519,0.421-0.939,0.938-0.939c0.519,0,0.939,0.421,0.939,0.939  v2.559H31.1V26.472z"></path><path d="M31.894,18.236c0,0.396,0.321,0.718,0.719,0.718c0.396,0,0.717-0.322,0.717-0.718c0-4.918-3.813-8.954-8.639-9.323V2.65  h4.309v1.755h-2.354c-0.397,0-0.718,0.322-0.718,0.719s0.32,0.719,0.718,0.719h3.074c0.396,0,0.716-0.322,0.716-0.719V1.931  c0-0.396-0.32-0.718-0.716-0.718h-5.75c-0.396,0-0.718,0.321-0.718,0.718v6.982c-4.825,0.369-8.641,4.404-8.641,9.323  c0,0.396,0.322,0.718,0.719,0.718c0.396,0,0.718-0.322,0.718-0.718c0-3.593,2.406-6.629,5.689-7.598  c-1.12,1.392-2.317,3.768-2.317,7.598c0,0.396,0.321,0.718,0.718,0.718c0.397,0,0.719-0.322,0.719-0.718  c0-5.054,2.253-7.167,3.112-7.789c0.864,0.626,3.115,2.739,3.115,7.789c0,0.396,0.321,0.718,0.717,0.718  c0.396,0,0.72-0.322,0.72-0.718c0-3.832-1.198-6.207-2.32-7.598C29.486,11.604,31.894,14.642,31.894,18.236z"></path></svg>