<svg xmlns="http://www.w3.org/2000/svg" xmlns:xlink="http://www.w3.org/1999/xlink" version="1.1" x="0px" y="0px" viewBox="0 0 100 100" enable-background="new 0 0 100 100" xml:space="preserve"><g><path d="M47.573,17.965c11.414-5.277,24.964-1.564,32.113,8.775l4.91-0.608l-4.68,18.71L66.203,28.399l4.602-0.562   C65.303,20.733,56.51,16.999,47.573,17.965z"></path></g><path d="M84.721,64.889c0,9.146-7.408,16.555-16.549,16.555c-9.135,0-16.549-7.408-16.549-16.555  c0-9.135,7.414-16.548,16.549-16.548C77.312,48.34,84.721,55.754,84.721,64.889L84.721,64.889z M86.031,64.889  c0-9.855-7.994-17.853-17.859-17.853c-9.861,0-17.854,7.998-17.854,17.853c0,9.861,7.993,17.865,17.854,17.865  C78.037,82.754,86.031,74.75,86.031,64.889L86.031,64.889z"></path><g><path d="M68.104,62.234c-0.467-0.012-0.934-0.068-1.389-0.215c-0.406-0.113-0.793-0.281-1.143-0.518   c-0.326-0.225-0.607-0.518-0.82-0.854c-0.164-0.281-0.254-0.598-0.254-0.9c0-0.326,0.09-0.637,0.254-0.9   c0.213-0.338,0.494-0.637,0.82-0.861c0.35-0.242,0.736-0.422,1.143-0.533c0.473-0.125,0.967-0.197,1.457-0.197   c0.494,0,0.984,0.072,1.461,0.197c0.406,0.111,0.789,0.291,1.137,0.533c0.17,0.113,0.316,0.242,0.457,0.377l4.359-1.969   c-0.4-0.658-0.906-1.238-1.486-1.744c-0.787-0.674-1.688-1.191-2.666-1.541c-0.629-0.225-1.283-0.383-1.945-0.484v-1.359h-2.627   v1.359c-0.664,0.102-1.316,0.26-1.953,0.484c-0.973,0.35-1.873,0.867-2.66,1.541c-0.771,0.664-1.4,1.48-1.84,2.396   c-0.404,0.844-0.613,1.756-0.613,2.701c0,0.922,0.209,1.855,0.613,2.699c0.439,0.912,1.068,1.727,1.84,2.385   c0.787,0.676,1.688,1.199,2.66,1.535c1.029,0.367,2.109,0.562,3.195,0.562c0.518,0,1.035,0.074,1.529,0.209   c0.406,0.111,0.789,0.281,1.137,0.523c0.332,0.225,0.613,0.523,0.822,0.871c0.168,0.271,0.258,0.574,0.258,0.889   c0,0.32-0.09,0.631-0.258,0.9c-0.209,0.35-0.49,0.631-0.822,0.865c-0.348,0.227-0.73,0.412-1.137,0.523   c-0.477,0.141-0.967,0.197-1.461,0.197c-0.49,0-0.984-0.057-1.457-0.197c-0.406-0.111-0.793-0.297-1.143-0.523   c-0.162-0.111-0.314-0.246-0.449-0.393l-4.359,1.969c0.398,0.664,0.904,1.254,1.484,1.744c0.787,0.674,1.688,1.197,2.66,1.553   c0.637,0.225,1.289,0.377,1.953,0.471v1.367h2.627v-1.367c0.662-0.094,1.316-0.246,1.945-0.471   c0.979-0.355,1.879-0.879,2.666-1.553c0.771-0.658,1.395-1.475,1.834-2.385c0.41-0.844,0.619-1.762,0.619-2.701   c0-0.934-0.209-1.855-0.619-2.688C75.494,65.822,74.871,65,74.1,64.344c-0.787-0.676-1.688-1.211-2.666-1.547   c-1.047-0.383-2.148-0.562-3.262-0.562C68.154,62.234,68.133,62.234,68.104,62.234"></path></g><path d="M49.012,34.418c0,9.141-7.408,16.554-16.549,16.554s-16.549-7.414-16.549-16.554s7.408-16.537,16.549-16.537  S49.012,25.278,49.012,34.418L49.012,34.418z M50.323,34.418c0-9.861-7.998-17.859-17.859-17.859  c-9.859,0-17.859,7.998-17.859,17.859c0,9.871,8,17.859,17.859,17.859C42.325,52.277,50.323,44.29,50.323,34.418L50.323,34.418z"></path><g><polygon points="35.76,34.233 40.137,34.233 40.137,36.932 34.692,36.932 34.692,38.102 40.137,38.102 40.137,40.803    34.692,40.803 34.692,48.577 30.243,48.577 30.243,40.803 24.792,40.803 24.792,38.102 30.243,38.102 30.243,36.932 24.792,36.932    24.792,34.233 29.168,34.233 22.874,24.35 26.04,22.342 32.463,32.421 38.893,22.342 42.055,24.35  "></polygon></g><g><path d="M53.062,81.359c-11.414,5.258-24.958,1.562-32.107-8.775l-4.91,0.607l4.674-18.721l13.713,16.436l-4.601,0.562   C35.333,78.592,44.13,82.314,53.062,81.359z"></path></g></svg>