<svg xmlns="http://www.w3.org/2000/svg" xmlns:xlink="http://www.w3.org/1999/xlink" version="1.1" x="0px" y="0px" viewBox="0 0 48 48" enable-background="new 0 0 48 48" xml:space="preserve"><path d="M46.778,29.751l-5.987-9.301c-0.001-0.001-0.002-0.002-0.004-0.005c-0.003-0.004-0.008-0.007-0.01-0.012  c-0.049-0.072-0.104-0.135-0.165-0.192c-0.018-0.016-0.036-0.029-0.055-0.045c-0.053-0.045-0.11-0.084-0.17-0.118  c-0.013-0.007-0.022-0.018-0.036-0.025L16.846,7.95c-0.34-0.177-0.748-0.169-1.083,0.018l-8.791,4.905  C6.96,12.879,6.951,12.89,6.94,12.897c-0.065,0.039-0.126,0.084-0.183,0.137c-0.012,0.012-0.026,0.021-0.039,0.033  c-0.057,0.059-0.11,0.122-0.156,0.193l-5.287,8.345c-0.164,0.26-0.218,0.573-0.148,0.873c0.068,0.299,0.255,0.558,0.517,0.719  l30.13,18.473c0.02,0.012,0.042,0.016,0.063,0.026c0.021,0.012,0.037,0.028,0.059,0.038c0.038,0.018,0.078,0.025,0.117,0.039  c0.028,0.009,0.055,0.021,0.083,0.028c0.091,0.022,0.182,0.036,0.274,0.036c0.002,0,0.003,0.001,0.003,0.001l0,0  c0.001,0,0.001,0,0.001,0s0.001-0.001,0.002-0.001c0.112,0,0.222-0.021,0.329-0.054c0.032-0.01,0.061-0.024,0.092-0.036  c0.078-0.031,0.15-0.069,0.22-0.117c0.019-0.012,0.038-0.016,0.056-0.029l13.439-10.319C46.985,30.918,47.101,30.253,46.778,29.751z   M16.343,10.27L37.6,21.215l-6.066,4.187l-21.61-11.55L16.343,10.27z M7.93,15.387l22.569,12.061l0.61,11.124L3.835,21.85  L7.93,15.387z M33.399,38.458L32.79,27.32l6.714-4.634l4.775,7.418L33.399,38.458z"></path></svg>