<svg xmlns="http://www.w3.org/2000/svg" xmlns:xlink="http://www.w3.org/1999/xlink" version="1.1" x="0px" y="0px" viewBox="-255 347 100 100" style="enable-background:new -255 347 100 100;" xml:space="preserve"><g><g><path d="M-209.4,390c-0.2,0-0.4,0-0.6,0c-5.5-0.3-9.8-5.1-9.4-10.7c0.4-5.5,5.2-9.8,10.7-9.4c5.5,0.3,9.8,5.1,9.4,10.7    c-0.2,2.7-1.4,5.1-3.4,6.9C-204.6,389.1-207,390-209.4,390z M-209.5,374.4c-2.9,0-5.4,2.3-5.6,5.2c-0.2,3.1,2.1,5.7,5.2,5.9    c1.5,0.1,2.9-0.4,4-1.4c1.1-1,1.8-2.3,1.9-3.8l0,0c0.2-3.1-2.1-5.7-5.2-5.9C-209.2,374.4-209.3,374.4-209.5,374.4z"></path></g><g><path d="M-207,416.5c-0.2,0-0.4,0-0.6,0c-3.7-0.2-7-2.5-8.6-5.9c-0.5-1.1,0-2.5,1.1-3c1.1-0.5,2.5,0,3,1.1    c0.8,1.9,2.7,3.1,4.7,3.3c3,0.1,5.7-2.1,5.9-5.2c0.1-1.5-0.4-2.9-1.4-4c-1-1.1-2.3-1.8-3.8-1.9c-1.7-0.1-3.3,0.6-4.5,1.8    c-0.8,0.9-2.3,1-3.2,0.2c-0.9-0.8-1-2.3-0.2-3.2c2.1-2.3,5-3.5,8.1-3.3c2.7,0.2,5.1,1.4,6.9,3.4c1.8,2,2.7,4.6,2.5,7.3    c-0.2,2.7-1.4,5.1-3.4,6.9C-202.2,415.6-204.5,416.5-207,416.5z"></path></g><g><path d="M-201.5,426.1c-0.4,0-0.8,0-1.2-0.1c-2.7-0.3-5.1-1.6-6.7-3.7c-1.7-2.2-2.5-5-2.1-7.7c0.2-1.2,1.3-2.1,2.6-1.9    c1.2,0.2,2.1,1.3,1.9,2.6c-0.2,1.5,0.2,3.1,1.1,4.3c0.9,1.2,2.2,1.9,3.7,2.1c1.5,0.2,2.9-0.2,4.1-1.2c1.2-0.9,1.9-2.2,2.1-3.7    s-0.2-2.9-1.2-4.1c-0.7-0.9-1.8-1.6-2.9-1.9c-1.2-0.3-1.9-1.6-1.6-2.8c0.3-1.2,1.5-1.9,2.8-1.6c2.1,0.6,3.9,1.8,5.3,3.5    c1.7,2.1,2.4,4.7,2.1,7.4c-0.3,2.7-1.6,5.1-3.7,6.7C-197,425.3-199.2,426.1-201.5,426.1z"></path></g><g><path d="M-220.8,414.2c-0.2,0-0.4,0-0.6,0c-5.5-0.3-9.8-5.1-9.4-10.7c0.2-2.7,1.4-5.1,3.4-6.9c2-1.8,4.6-2.7,7.3-2.5    c2.7,0.2,5.1,1.4,6.9,3.4s2.7,4.6,2.5,7.3l0,0c-0.2,2.7-1.4,5.1-3.4,6.9C-216,413.3-218.3,414.2-220.8,414.2z M-220.8,398.6    c-1.4,0-2.6,0.5-3.7,1.4c-1.1,1-1.8,2.3-1.9,3.8c-0.2,3.1,2.1,5.7,5.2,5.9c1.5,0.1,2.9-0.4,4-1.4c1.1-1,1.8-2.3,1.9-3.8l0,0    c0.1-1.5-0.4-2.9-1.4-4c-1-1.1-2.3-1.8-3.8-1.9C-220.6,398.6-220.7,398.6-220.8,398.6z"></path></g><g><path d="M-230.7,418.7c-0.2,0-0.4,0-0.6,0c-4.8-0.3-8.4-4.4-8.1-9.2c0.1-2.3,1.2-4.4,2.9-6c1.7-1.5,3.9-2.3,6.3-2.2    c0.8,0,1.6,0.2,2.3,0.5c1.2,0.4,1.8,1.7,1.4,2.9c-0.4,1.2-1.7,1.8-2.9,1.4c-0.3-0.1-0.7-0.2-1.1-0.2c-1.1-0.1-2.2,0.3-3,1    c-0.8,0.7-1.3,1.8-1.4,2.9c-0.1,2.3,1.6,4.3,3.9,4.5c2.1,0.1,4-1.4,4.4-3.5c0.2-1.2,1.4-2,2.6-1.8c1.2,0.2,2,1.4,1.8,2.6    C-222.9,415.7-226.5,418.7-230.7,418.7z"></path></g><g><path d="M-192.6,413.2c-0.2,0-0.4,0-0.6,0c-4.8-0.3-8.4-4.4-8.1-9.2c0.3-4.8,4.4-8.4,9.2-8.1c2.3,0.1,4.4,1.2,6,2.9    c1.5,1.7,2.3,4,2.2,6.3c0,0,0,0,0,0C-184.2,409.7-188,413.2-192.6,413.2z M-192.6,400.3c-2.2,0-4,1.7-4.2,3.9    c-0.1,2.3,1.6,4.3,3.9,4.4c2.3,0.1,4.3-1.6,4.5-3.9c0.1-1.1-0.3-2.2-1-3c-0.7-0.8-1.8-1.3-2.9-1.4    C-192.4,400.4-192.5,400.3-192.6,400.3z"></path></g><g><path d="M-232.5,431.5c-0.2,0-0.4,0-0.6,0c-2.3-0.1-4.4-1.2-6-2.9c-1.5-1.7-2.3-4-2.2-6.3c0.1-2.3,1.2-4.4,2.9-6    c1.7-1.5,3.9-2.3,6.3-2.2c2.3,0.1,4.4,1.2,6,2.9c1.5,1.7,2.3,4,2.2,6.3c-0.1,2.3-1.2,4.4-2.9,6    C-228.4,430.7-230.4,431.5-232.5,431.5z M-232.6,418.6c-1,0-2,0.4-2.8,1c-0.8,0.7-1.3,1.8-1.4,2.9c-0.1,1.1,0.3,2.2,1,3    c0.7,0.8,1.8,1.3,2.9,1.4c1.1,0,2.2-0.3,3-1s1.3-1.8,1.4-2.9c0.1-1.1-0.3-2.2-1-3c-0.7-0.8-1.8-1.3-2.9-1.4    C-232.4,418.6-232.5,418.6-232.6,418.6z"></path></g><g><path d="M-180.4,393.9c-6.8,0-9.9-3.9-12.1-8.2c-0.6-1.1-0.1-2.5,1-3c1.1-0.6,2.5-0.1,3,1c1.7,3.3,3.9,7.7,14.3,4.6    c-2.2-3.7-7.7-10.8-17.7-8.2c-1.2,0.3-2.4-0.4-2.7-1.6c-0.3-1.2,0.4-2.4,1.6-2.7c13.6-3.5,21.7,7,24.1,13.1c0.2,0.6,0.2,1.2,0,1.7    c-0.2,0.6-0.7,1-1.3,1.2C-174.3,393.2-177.7,393.9-180.4,393.9z"></path></g><g><path d="M-199.5,385.7c-0.7,0-1.4-0.3-1.8-0.9c-0.8-1-0.6-2.4,0.4-3.2c6.5-4.9,15.9-13.5,16.5-17.3c0.2-1.2,1.4-2.1,2.6-1.8    c1.2,0.2,2,1.4,1.8,2.6c-1.2,6.9-15.4,18-18.3,20.1C-198.5,385.6-199,385.7-199.5,385.7z"></path></g><g><path d="M-214.3,402c-0.8,0-1.6-0.4-2-1.2c-0.6-1.1-0.2-2.5,0.9-3.1c1.7-0.9,2.8-2.6,2.9-4.5c0.1-1.5-0.4-2.9-1.4-4    c-1-1.1-2.3-1.8-3.8-1.9c-1.5-0.1-2.9,0.4-4,1.4c-1.1,1-1.8,2.3-1.9,3.8c-0.1,1.2,0.2,2.4,0.9,3.5c0.7,1,0.4,2.4-0.6,3.1    c-1,0.7-2.4,0.4-3.1-0.6c-1.3-1.9-1.8-4-1.7-6.3c0.3-5.5,5.1-9.7,10.7-9.4c5.5,0.3,9.8,5.1,9.4,10.7c-0.2,3.5-2.2,6.5-5.2,8.2    C-213.6,401.9-214,402-214.3,402z"></path></g><g><path d="M-200.8,403.9c-1.1,0-2-0.8-2.2-1.9c-0.2-1.2,0.6-2.4,1.9-2.6c2.6-0.4,4.5-2.5,4.7-5.1c0.1-1.5-0.4-2.9-1.4-4    c-1-1.1-2.3-1.8-3.8-1.9c-1.5-0.1-2.9,0.4-4,1.4c-1.1,1-1.8,2.3-1.9,3.8c-0.1,1.3,0.3,2.6,1.1,3.6c0.7,1,0.5,2.4-0.5,3.1    c-1,0.7-2.4,0.5-3.1-0.5c-1.4-1.9-2.1-4.2-1.9-6.6c0.2-2.7,1.4-5.1,3.4-6.9s4.6-2.7,7.3-2.5c2.7,0.2,5.1,1.4,6.9,3.4    c1.8,2,2.7,4.6,2.5,7.3c-0.3,4.7-3.8,8.5-8.4,9.3C-200.6,403.9-200.7,403.9-200.8,403.9z"></path></g><g><path d="M-218,428.7c-0.2,0-0.4,0-0.6,0c-2.7-0.2-5.1-1.4-6.9-3.4c-1.8-2-2.7-4.6-2.5-7.3c0.2-3.3,2-6.3,4.9-8    c1.1-0.6,2.4-0.3,3.1,0.8c0.6,1.1,0.3,2.4-0.8,3.1c-1.6,0.9-2.6,2.6-2.7,4.4c-0.1,1.5,0.4,2.9,1.4,4c1,1.1,2.3,1.8,3.8,1.9    c1.5,0.1,2.9-0.4,4-1.4s1.8-2.3,1.9-3.8c0.2-2.7-1.6-5.2-4.3-5.8c-1.2-0.3-2-1.5-1.7-2.7c0.3-1.2,1.5-2,2.7-1.7    c4.8,1.1,8.1,5.5,7.8,10.4c-0.2,2.7-1.4,5.1-3.4,6.9C-213.2,427.8-215.6,428.7-218,428.7z"></path></g></g></svg>