<svg xmlns="http://www.w3.org/2000/svg" xmlns:xlink="http://www.w3.org/1999/xlink" version="1.1" x="0px" y="0px" viewBox="0 0 100 100" enable-background="new 0 0 100 100" xml:space="preserve"><path d="M43,33.2c0-2.9,2.3-5.2,5.2-5.3v-1.7c0-0.9,0.8-1.7,1.7-1.7s1.7,0.8,1.7,1.7v1.7H54c0.9,0,1.7,0.8,1.7,1.7s-0.8,1.7-1.7,1.7  h-5.8c-1,0-1.9,0.8-1.9,1.9c0,1,0.8,1.9,1.9,1.9h3.3c2.9,0,5.3,2.4,5.3,5.3c0,2.9-2.3,5.2-5.2,5.3v1.8c0,0.9-0.8,1.7-1.7,1.7  s-1.7-0.8-1.7-1.7v-1.8h-2.5c-0.9,0-1.7-0.8-1.7-1.7s0.8-1.7,1.7-1.7h5.9c1,0,1.9-0.8,1.9-1.9c0-1-0.8-1.9-1.9-1.9h-3.3  C45.3,38.5,43,36.1,43,33.2z M49.7,20c0.9,0,1.7-0.8,1.7-1.7v-4.4c0-0.9-0.8-1.7-1.7-1.7S48,13,48,13.9v4.4C48,19.3,48.8,20,49.7,20  z M51.9,60.2v-4.4c0-0.9-0.8-1.7-1.7-1.7s-1.7,0.8-1.7,1.7v4.4c0,0.9,0.8,1.7,1.7,1.7S51.9,61.1,51.9,60.2z M26.4,38.5  c0,0.9,0.8,1.7,1.7,1.7h4.3c0.9,0,1.7-0.8,1.7-1.7s-0.8-1.7-1.7-1.7H28C27.1,36.8,26.4,37.6,26.4,38.5z M68.2,38  c0,0.9,0.8,1.7,1.7,1.7h4.4c0.9,0,1.7-0.8,1.7-1.7s-0.8-1.7-1.7-1.7h-4.4C69,36.3,68.2,37.1,68.2,38z M36.3,24.8  c0.3,0.3,0.8,0.5,1.2,0.5s0.9-0.2,1.2-0.5c0.7-0.7,0.7-1.7,0-2.4l-2.9-2.9c-0.7-0.7-1.7-0.7-2.4,0s-0.7,1.7,0,2.4L36.3,24.8z   M63.4,48.9c-0.7,0.7-0.7,1.7,0,2.4l2.9,2.9c0.3,0.3,0.8,0.5,1.2,0.5s0.9-0.2,1.2-0.5c0.7-0.7,0.7-1.7,0-2.4l-2.9-2.9  C65.1,48.2,64,48.2,63.4,48.9z M36.6,49.2l-2.9,2.9c-0.7,0.7-0.7,1.7,0,2.4c0.3,0.3,0.8,0.5,1.2,0.5s0.9-0.2,1.2-0.5l2.9-2.9  c0.7-0.7,0.7-1.7,0-2.4S37.2,48.5,36.6,49.2z M64.3,25c0.4,0,0.9-0.2,1.2-0.5l2.9-2.9c0.7-0.7,0.7-1.7,0-2.4c-0.7-0.7-1.7-0.7-2.4,0  l-2.9,2.9c-0.7,0.7-0.7,1.7,0,2.4C63.4,24.8,63.8,25,64.3,25z M23.9,59.7h-0.1c-1.8-0.6-3.7,0.1-4.7,1.7c-1,1.6-0.8,3.6,0.5,4.9  c0.1,0.1,0.1,0.1,4.8,3.4c2,1.4,4,2.8,4.3,3c0.7,0.5,1.6,0.4,2.2-0.2c0.7-0.7,0.7-1.7,0-2.4c-0.1-0.1-0.1-0.1-4.5-3.2  c-1.8-1.3-3.9-2.7-4.4-3.1c-0.1-0.2-0.1-0.4,0-0.6c0.1-0.2,0.3-0.4,0.6-0.3l10,4.2h0.1c3.4,1.1,5.7,5,6.1,5.7l4.4,13.3  c0.2,0.7,0.9,1.2,1.6,1.2c0.2,0,0.4,0,0.5-0.1c0.9-0.3,1.4-1.3,1.1-2.1L42,71.6c0-0.1-0.1-0.2-0.1-0.3c-0.1-0.2-3-5.7-8-7.4  L23.9,59.7z M7.3,44.2c0.3-0.2,0.5,0,0.5,0.1l7.6,13.8c0.5,0.8,1.5,1.1,2.3,0.7c0.8-0.5,1.1-1.5,0.7-2.3l-7.6-13.8v-0.1  c-1.1-1.7-3.1-2.3-4.9-1.5s-2.7,2.8-2,4.7L11.6,69c0.8,2.3,2.5,4.3,4.7,5.4l12.8,6.3c1,0.5,1.8,1.4,2.1,2.5l0.9,3.3  c0.2,0.8,0.9,1.3,1.6,1.3c0.1,0,0.3,0,0.4-0.1c0.9-0.2,1.5-1.2,1.2-2.1l-0.9-3.3c-0.5-2.1-2-3.8-3.9-4.7l-12.8-6.3  c-1.4-0.7-2.5-1.9-3-3.4L7,44.7C7,44.6,6.9,44.3,7.3,44.2z M54.7,87.2c0.2,0.1,0.4,0.1,0.5,0.1c0.7,0,1.4-0.5,1.6-1.2l4.4-13.3  c0.4-0.7,2.7-4.5,6.1-5.7h0.1l10-4.2c0.3-0.1,0.5,0.1,0.6,0.3s0.1,0.4,0,0.6c-0.6,0.4-2.7,1.9-4.5,3.2c-4.3,3-4.3,3-4.4,3.1  c-0.7,0.7-0.7,1.7,0,2.4c0.6,0.6,1.6,0.7,2.2,0.2c0.2-0.2,2.2-1.5,4.2-2.9c4.8-3.4,4.8-3.4,4.9-3.5c1.3-1.3,1.5-3.3,0.5-4.9  c-1-1.6-2.9-2.3-4.7-1.7h-0.1l-10,4.2c-5,1.7-7.9,7.2-8,7.4c0,0.1-0.1,0.2-0.1,0.3L53.6,85C53.3,85.9,53.8,86.9,54.7,87.2z   M85.2,67.9c-0.5,1.5-1.6,2.7-3,3.4l-12.8,6.3c-1.9,0.9-3.3,2.7-3.9,4.7l-0.9,3.3c-0.2,0.9,0.3,1.8,1.2,2.1c0.1,0,0.3,0.1,0.4,0.1  c0.8,0,1.4-0.5,1.6-1.3l0.9-3.3c0.3-1.1,1.1-2,2.1-2.5l12.8-6.3c2.2-1.1,3.9-3,4.7-5.4l7.8-23.2c0.6-1.9-0.2-3.9-2-4.7  c-1.8-0.9-3.8-0.3-4.9,1.5v0.1l-7.6,13.8c-0.5,0.8-0.2,1.9,0.7,2.3s1.9,0.2,2.3-0.7l7.6-13.8c0.1-0.1,0.2-0.3,0.5-0.1  c0.4,0.2,0.3,0.5,0.2,0.6L85.2,67.9z"></path></svg>